<svg xmlns="http://www.w3.org/2000/svg" width="24" height="24" viewBox="0 0 24 24"><!-- Foldcade original art, CC BY-SA 4.0. Notifications, 4 unread --><defs><radialGradient id="g0" gradientUnits="userSpaceOnUse" cx="12" cy="11" r="10"><stop offset="0" stop-color="#FFB547" stop-opacity="0.22"/><stop offset="0.1" stop-color="#FFB547" stop-opacity="0.18"/><stop offset="0.2" stop-color="#FFB547" stop-opacity="0.133"/><stop offset="0.3" stop-color="#FFB547" stop-opacity="0.088"/><stop offset="0.4" stop-color="#FFB547" stop-opacity="0.052"/><stop offset="0.5" stop-color="#FFB547" stop-opacity="0.027"/><stop offset="0.6" stop-color="#FFB547" stop-opacity="0.012"/><stop offset="0.7" stop-color="#FFB547" stop-opacity="0.005"/><stop offset="0.8" stop-color="#FFB547" stop-opacity="0.001"/><stop offset="0.9" stop-color="#FFB547" stop-opacity="0"/><stop offset="1" stop-color="#FFB547" stop-opacity="0"/></radialGradient><linearGradient id="g1" gradientUnits="userSpaceOnUse" x1="0" y1="3" x2="0" y2="16"><stop offset="0" stop-color="#FFE7BE" stop-opacity="1"/><stop offset="0.55" stop-color="#FFB547" stop-opacity="1"/><stop offset="1" stop-color="#D9862A" stop-opacity="1"/></linearGradient><linearGradient id="g2" gradientUnits="userSpaceOnUse" x1="0" y1="17" x2="0" y2="20"><stop offset="0" stop-color="#FFE7BE" stop-opacity="1"/><stop offset="1" stop-color="#FFB547" stop-opacity="1"/></linearGradient><radialGradient id="g3" gradientUnits="userSpaceOnUse" cx="19.6" cy="6.4" r="7"><stop offset="0" stop-color="#FF5C7A" stop-opacity="0.6"/><stop offset="0.1" stop-color="#FF5C7A" stop-opacity="0.491"/><stop offset="0.2" stop-color="#FF5C7A" stop-opacity="0.363"/><stop offset="0.3" stop-color="#FF5C7A" stop-opacity="0.241"/><stop offset="0.4" stop-color="#FF5C7A" stop-opacity="0.142"/><stop offset="0.5" stop-color="#FF5C7A" stop-opacity="0.074"/><stop offset="0.6" stop-color="#FF5C7A" stop-opacity="0.033"/><stop offset="0.7" stop-color="#FF5C7A" stop-opacity="0.013"/><stop offset="0.8" stop-color="#FF5C7A" stop-opacity="0.004"/><stop offset="0.9" stop-color="#FF5C7A" stop-opacity="0.001"/><stop offset="1" stop-color="#FF5C7A" stop-opacity="0"/></radialGradient><linearGradient id="g4" gradientUnits="userSpaceOnUse" x1="0" y1="2.4" x2="0" y2="10.4"><stop offset="0" stop-color="#FF9DB0" stop-opacity="1"/><stop offset="1" stop-color="#E23E62" stop-opacity="1"/></linearGradient></defs><g transform="translate(12 11) scale(1 0.9) translate(-12 -11)"><path d="M2,11A10,10 0 1 1 22,11A10,10 0 1 1 2,11Z" fill="url(#g0)"/></g><path d="M12,3.2 C8.6,3.2 6.6,5.9 6.6,9.2 V12.6 L5,15.2 Q4.6,16.2 5.7,16.2 H18.3 Q19.4,16.2 19,15.2 L17.4,12.6 V9.2 C17.4,5.9 15.4,3.2 12,3.2 Z" fill="url(#g1)"/><path d="M8.6,6.6 Q9.6,4.9 11.6,4.6" fill="none" stroke="#FFFFFF" stroke-width="1" stroke-linecap="round" stroke-linejoin="round" stroke-opacity="0.6"/><path d="M9.4,17.2 H14.6 A2.6,2.6 0 0 1 9.4,17.2 Z" fill="url(#g2)"/><path d="M12.6,6.4A7,7 0 1 1 26.6,6.4A7,7 0 1 1 12.6,6.4Z" fill="url(#g3)"/><path d="M19.6,2.4H19.6A3.8,3.8 0 0 1 23.4,6.2V6.6A3.8,3.8 0 0 1 19.6,10.4H19.6A3.8,3.8 0 0 1 15.8,6.6V6.2A3.8,3.8 0 0 1 19.6,2.4Z" fill="url(#g4)" stroke="#000000" stroke-width="1" stroke-linecap="round" stroke-linejoin="round"/><path d="M20.235 8.761Q19.96 8.761 19.807 8.609Q19.655 8.458 19.655 8.168V7.93H18.343Q18.058 7.93 17.895 7.799Q17.733 7.669 17.733 7.403Q17.733 7.248 17.794 7.101Q17.856 6.954 18.004 6.74L19.596 4.42Q19.729 4.225 19.89 4.132Q20.051 4.039 20.273 4.039Q20.522 4.039 20.666 4.189Q20.811 4.338 20.811 4.632V7.022H20.968Q21.211 7.022 21.339 7.139Q21.467 7.256 21.467 7.476Q21.467 7.695 21.341 7.813Q21.216 7.93 20.968 7.93H20.811V8.168Q20.811 8.454 20.662 8.607Q20.514 8.761 20.235 8.761ZM19.655 7.022V5.482H19.836L18.608 7.306V7.022Z" fill="#FFFFFF"/></svg>
