<svg xmlns="http://www.w3.org/2000/svg" width="24" height="24" viewBox="0 0 24 24"><!-- Foldcade original art, CC BY-SA 4.0. Notifications --><defs><radialGradient id="g0" gradientUnits="userSpaceOnUse" cx="12" cy="11" r="10"><stop offset="0" stop-color="#FFB547" stop-opacity="0.22"/><stop offset="0.1" stop-color="#FFB547" stop-opacity="0.18"/><stop offset="0.2" stop-color="#FFB547" stop-opacity="0.133"/><stop offset="0.3" stop-color="#FFB547" stop-opacity="0.088"/><stop offset="0.4" stop-color="#FFB547" stop-opacity="0.052"/><stop offset="0.5" stop-color="#FFB547" stop-opacity="0.027"/><stop offset="0.6" stop-color="#FFB547" stop-opacity="0.012"/><stop offset="0.7" stop-color="#FFB547" stop-opacity="0.005"/><stop offset="0.8" stop-color="#FFB547" stop-opacity="0.001"/><stop offset="0.9" stop-color="#FFB547" stop-opacity="0"/><stop offset="1" stop-color="#FFB547" stop-opacity="0"/></radialGradient><linearGradient id="g1" gradientUnits="userSpaceOnUse" x1="0" y1="3" x2="0" y2="16"><stop offset="0" stop-color="#FFE7BE" stop-opacity="1"/><stop offset="0.55" stop-color="#FFB547" stop-opacity="1"/><stop offset="1" stop-color="#D9862A" stop-opacity="1"/></linearGradient><linearGradient id="g2" gradientUnits="userSpaceOnUse" x1="0" y1="17" x2="0" y2="20"><stop offset="0" stop-color="#FFE7BE" stop-opacity="1"/><stop offset="1" stop-color="#FFB547" stop-opacity="1"/></linearGradient></defs><g transform="translate(12 11) scale(1 0.9) translate(-12 -11)"><path d="M2,11A10,10 0 1 1 22,11A10,10 0 1 1 2,11Z" fill="url(#g0)"/></g><path d="M12,3.2 C8.6,3.2 6.6,5.9 6.6,9.2 V12.6 L5,15.2 Q4.6,16.2 5.7,16.2 H18.3 Q19.4,16.2 19,15.2 L17.4,12.6 V9.2 C17.4,5.9 15.4,3.2 12,3.2 Z" fill="url(#g1)"/><path d="M8.6,6.6 Q9.6,4.9 11.6,4.6" fill="none" stroke="#FFFFFF" stroke-width="1" stroke-linecap="round" stroke-linejoin="round" stroke-opacity="0.6"/><path d="M9.4,17.2 H14.6 A2.6,2.6 0 0 1 9.4,17.2 Z" fill="url(#g2)"/></svg>
