<svg xmlns="http://www.w3.org/2000/svg" width="24" height="24" viewBox="0 0 24 24"><!-- Foldcade original art, CC BY-SA 4.0. Battery 0% --><defs><linearGradient id="g0" gradientUnits="userSpaceOnUse" x1="0" y1="7" x2="0" y2="17"><stop offset="0" stop-color="#FFFFFF" stop-opacity="0.95"/><stop offset="1" stop-color="#9A958C" stop-opacity="0.8"/></linearGradient></defs><path d="M5.2,7H17A3,3 0 0 1 20,10V14A3,3 0 0 1 17,17H5.2A3,3 0 0 1 2.2,14V10A3,3 0 0 1 5.2,7Z" fill="#0C0D11" stroke="url(#g0)" stroke-width="1.3" stroke-linecap="round" stroke-linejoin="round"/><path d="M20.6,10H21.55A0.95,0.95 0 0 1 22.5,10.95V13.05A0.95,0.95 0 0 1 21.55,14H20.6V10Z" fill="#CFC9BD"/></svg>
