<svg xmlns="http://www.w3.org/2000/svg" width="64" height="64" viewBox="0 0 64 64"><!-- Foldcade original art, CC BY-SA 4.0. Afterglow mark: A crescent moon sending a stream --><defs><radialGradient id="g0" gradientUnits="userSpaceOnUse" cx="28" cy="34" r="32"><stop offset="0" stop-color="#A9BCFF" stop-opacity="0.34"/><stop offset="0.1" stop-color="#A9BCFF" stop-opacity="0.34"/><stop offset="0.2" stop-color="#A9BCFF" stop-opacity="0.285"/><stop offset="0.3" stop-color="#A9BCFF" stop-opacity="0.202"/><stop offset="0.4" stop-color="#A9BCFF" stop-opacity="0.125"/><stop offset="0.5" stop-color="#A9BCFF" stop-opacity="0.067"/><stop offset="0.6" stop-color="#A9BCFF" stop-opacity="0.03"/><stop offset="0.7" stop-color="#A9BCFF" stop-opacity="0.011"/><stop offset="0.8" stop-color="#A9BCFF" stop-opacity="0.003"/><stop offset="0.9" stop-color="#A9BCFF" stop-opacity="0"/><stop offset="1" stop-color="#A9BCFF" stop-opacity="0"/></radialGradient><linearGradient id="g1" gradientUnits="userSpaceOnUse" x1="10" y1="18" x2="40" y2="52"><stop offset="0" stop-color="#FFFFFF" stop-opacity="1"/><stop offset="0.35" stop-color="#DEE6FF" stop-opacity="1"/><stop offset="0.75" stop-color="#A9BCFF" stop-opacity="1"/><stop offset="1" stop-color="#4A5AB8" stop-opacity="1"/></linearGradient><linearGradient id="g2" gradientUnits="userSpaceOnUse" x1="40" y1="8" x2="58" y2="26"><stop offset="0" stop-color="#DEE6FF" stop-opacity="1"/><stop offset="1" stop-color="#A9BCFF" stop-opacity="0.7"/></linearGradient><linearGradient id="g3" gradientUnits="userSpaceOnUse" x1="40" y1="8" x2="58" y2="26"><stop offset="0" stop-color="#DEE6FF" stop-opacity="1"/><stop offset="1" stop-color="#A9BCFF" stop-opacity="0.7"/></linearGradient><linearGradient id="g4" gradientUnits="userSpaceOnUse" x1="40" y1="8" x2="58" y2="26"><stop offset="0" stop-color="#DEE6FF" stop-opacity="1"/><stop offset="1" stop-color="#A9BCFF" stop-opacity="0.7"/></linearGradient><radialGradient id="g5" gradientUnits="userSpaceOnUse" cx="40" cy="26" r="5"><stop offset="0" stop-color="#A9BCFF" stop-opacity="0.6"/><stop offset="0.1" stop-color="#A9BCFF" stop-opacity="0.491"/><stop offset="0.2" stop-color="#A9BCFF" stop-opacity="0.363"/><stop offset="0.3" stop-color="#A9BCFF" stop-opacity="0.241"/><stop offset="0.4" stop-color="#A9BCFF" stop-opacity="0.142"/><stop offset="0.5" stop-color="#A9BCFF" stop-opacity="0.074"/><stop offset="0.6" stop-color="#A9BCFF" stop-opacity="0.033"/><stop offset="0.7" stop-color="#A9BCFF" stop-opacity="0.013"/><stop offset="0.8" stop-color="#A9BCFF" stop-opacity="0.004"/><stop offset="0.9" stop-color="#A9BCFF" stop-opacity="0.001"/><stop offset="1" stop-color="#A9BCFF" stop-opacity="0"/></radialGradient></defs><path d="M-4,34A32,32 0 1 1 60,34A32,32 0 1 1 -4,34Z" fill="url(#g0)"/><path d="M44.098,39.626A18,18 0 1 1 25.756,16.043A15,15 0 0 0 44.098,39.626Z" fill="url(#g1)" stroke="#FFFFFF" stroke-width="0.8" stroke-linecap="round" stroke-linejoin="round" stroke-opacity="0.6"/><path d="M14.4,40.6A2.2,2.2 0 1 1 18.8,40.6A2.2,2.2 0 1 1 14.4,40.6Z" fill="#5A6AC8" fill-opacity="0.45"/><path d="M20,47.4A1.4,1.4 0 1 1 22.8,47.4A1.4,1.4 0 1 1 20,47.4Z" fill="#5A6AC8" fill-opacity="0.4"/><path d="M12.4,30.6A1.2,1.2 0 1 1 14.8,30.6A1.2,1.2 0 1 1 12.4,30.6Z" fill="#5A6AC8" fill-opacity="0.4"/><path d="M41.216,19.106 A7,7 0 0 1 46.894,24.784" fill="none" stroke="url(#g2)" stroke-width="2.6" stroke-linecap="round" stroke-linejoin="round"/><path d="M42.171,13.69 A12.5,12.5 0 0 1 52.31,23.829" fill="none" stroke="url(#g3)" stroke-width="2.6" stroke-linecap="round" stroke-linejoin="round" stroke-opacity="0.78"/><path d="M43.126,8.273 A18,18 0 0 1 57.727,22.874" fill="none" stroke="url(#g4)" stroke-width="2.6" stroke-linecap="round" stroke-linejoin="round" stroke-opacity="0.56"/><path d="M38.2,26A1.8,1.8 0 1 1 41.8,26A1.8,1.8 0 1 1 38.2,26Z" fill="#DEE6FF"/><path d="M35,26A5,5 0 1 1 45,26A5,5 0 1 1 35,26Z" fill="url(#g5)"/><path d="M51,44 L52,46.4 L54.4,47.4 L52,48.4 L51,50.8 L50,48.4 L47.6,47.4 L50,46.4 Z" fill="#FFFFFF" fill-opacity="0.85"/></svg>
