<svg xmlns="http://www.w3.org/2000/svg" width="24" height="24" viewBox="0 0 24 24"><!-- Foldcade original art, CC BY-SA 4.0. D-pad --><defs><radialGradient id="g0" gradientUnits="userSpaceOnUse" cx="12" cy="12" r="12"><stop offset="0" stop-color="#3EE6C0" stop-opacity="0.55"/><stop offset="0.1" stop-color="#3EE6C0" stop-opacity="0.55"/><stop offset="0.2" stop-color="#3EE6C0" stop-opacity="0.495"/><stop offset="0.3" stop-color="#3EE6C0" stop-opacity="0.361"/><stop offset="0.4" stop-color="#3EE6C0" stop-opacity="0.227"/><stop offset="0.5" stop-color="#3EE6C0" stop-opacity="0.122"/><stop offset="0.6" stop-color="#3EE6C0" stop-opacity="0.055"/><stop offset="0.7" stop-color="#3EE6C0" stop-opacity="0.02"/><stop offset="0.8" stop-color="#3EE6C0" stop-opacity="0.005"/><stop offset="0.9" stop-color="#3EE6C0" stop-opacity="0.001"/><stop offset="1" stop-color="#3EE6C0" stop-opacity="0"/></radialGradient><linearGradient id="g1" gradientUnits="userSpaceOnUse" x1="0" y1="2" x2="0" y2="22"><stop offset="0" stop-color="#9BFBE4" stop-opacity="1"/><stop offset="0.45" stop-color="#3EE6C0" stop-opacity="1"/><stop offset="1" stop-color="#159A82" stop-opacity="1"/></linearGradient><linearGradient id="g2" gradientUnits="userSpaceOnUse" x1="0" y1="2" x2="0" y2="22"><stop offset="0" stop-color="#FFFFFF" stop-opacity="0.9"/><stop offset="1" stop-color="#3EE6C0" stop-opacity="0.6"/></linearGradient><linearGradient id="g3" gradientUnits="userSpaceOnUse" x1="0" y1="2.6" x2="0" y2="7"><stop offset="0" stop-color="#FFFFFF" stop-opacity="0.25"/><stop offset="1" stop-color="#FFFFFF" stop-opacity="0"/></linearGradient></defs><path d="M0,12A12,12 0 1 1 24,12A12,12 0 1 1 0,12Z" fill="url(#g0)"/><path d="M10.4,2H13.6Q15.4,2 15.4,3.8V8.6H20.2Q22,8.6 22,10.4V13.6Q22,15.4 20.2,15.4H15.4V20.2Q15.4,22 13.6,22H10.4Q8.6,22 8.6,20.2V15.4H3.8Q2,15.4 2,13.6V10.4Q2,8.6 3.8,8.6H8.6V3.8Q8.6,2 10.4,2Z" fill="url(#g1)" stroke="url(#g2)" stroke-width="1" stroke-linecap="round" stroke-linejoin="round"/><path d="M10.8,2.8H13.2A1.4,1.4 0 0 1 14.6,4.2V6.8H9.4V4.2A1.4,1.4 0 0 1 10.8,2.8Z" fill="url(#g3)"/><path d="M10.1,12A1.9,1.9 0 1 1 13.9,12A1.9,1.9 0 1 1 10.1,12Z" fill="#04120E" fill-opacity="0.55"/><path d="M12,4.4 L10.2,6.9 L13.8,6.9Z" fill="#04120E" fill-opacity="0.9"/><path d="M12,19.6 L10.2,17.1 L13.8,17.1Z" fill="#04120E" fill-opacity="0.9"/><path d="M4.4,12 L6.9,10.2 L6.9,13.8Z" fill="#04120E" fill-opacity="0.9"/><path d="M19.6,12 L17.1,10.2 L17.1,13.8Z" fill="#04120E" fill-opacity="0.9"/></svg>
