<svg xmlns="http://www.w3.org/2000/svg" width="24" height="24" viewBox="0 0 24 24"><!-- Foldcade original art, CC BY-SA 4.0. Unlabeled face diamond, bottom lit --><defs><radialGradient id="g0" gradientUnits="userSpaceOnUse" cx="12" cy="12" r="12.2"><stop offset="0" stop-color="#3EE6C0" stop-opacity="0.35"/><stop offset="0.1" stop-color="#3EE6C0" stop-opacity="0.35"/><stop offset="0.2" stop-color="#3EE6C0" stop-opacity="0.278"/><stop offset="0.3" stop-color="#3EE6C0" stop-opacity="0.195"/><stop offset="0.4" stop-color="#3EE6C0" stop-opacity="0.119"/><stop offset="0.5" stop-color="#3EE6C0" stop-opacity="0.063"/><stop offset="0.6" stop-color="#3EE6C0" stop-opacity="0.028"/><stop offset="0.7" stop-color="#3EE6C0" stop-opacity="0.01"/><stop offset="0.8" stop-color="#3EE6C0" stop-opacity="0.003"/><stop offset="0.9" stop-color="#3EE6C0" stop-opacity="0"/><stop offset="1" stop-color="#3EE6C0" stop-opacity="0"/></radialGradient><linearGradient id="g1" gradientUnits="userSpaceOnUse" x1="0" y1="1.6" x2="0" y2="8.7"><stop offset="0" stop-color="#9BFBE4" stop-opacity="1"/><stop offset="0.45" stop-color="#3EE6C0" stop-opacity="1"/><stop offset="1" stop-color="#159A82" stop-opacity="1"/></linearGradient><linearGradient id="g2" gradientUnits="userSpaceOnUse" x1="0" y1="8.45" x2="0" y2="15.55"><stop offset="0" stop-color="#9BFBE4" stop-opacity="1"/><stop offset="0.45" stop-color="#3EE6C0" stop-opacity="1"/><stop offset="1" stop-color="#159A82" stop-opacity="1"/></linearGradient><linearGradient id="g3" gradientUnits="userSpaceOnUse" x1="0" y1="8.45" x2="0" y2="15.55"><stop offset="0" stop-color="#9BFBE4" stop-opacity="1"/><stop offset="0.45" stop-color="#3EE6C0" stop-opacity="1"/><stop offset="1" stop-color="#159A82" stop-opacity="1"/></linearGradient><radialGradient id="g4" gradientUnits="userSpaceOnUse" cx="12" cy="18.85" r="5.6"><stop offset="0" stop-color="#3EE6C0" stop-opacity="0.55"/><stop offset="0.1" stop-color="#3EE6C0" stop-opacity="0.55"/><stop offset="0.2" stop-color="#3EE6C0" stop-opacity="0.495"/><stop offset="0.3" stop-color="#3EE6C0" stop-opacity="0.361"/><stop offset="0.4" stop-color="#3EE6C0" stop-opacity="0.227"/><stop offset="0.5" stop-color="#3EE6C0" stop-opacity="0.122"/><stop offset="0.6" stop-color="#3EE6C0" stop-opacity="0.055"/><stop offset="0.7" stop-color="#3EE6C0" stop-opacity="0.02"/><stop offset="0.8" stop-color="#3EE6C0" stop-opacity="0.005"/><stop offset="0.9" stop-color="#3EE6C0" stop-opacity="0.001"/><stop offset="1" stop-color="#3EE6C0" stop-opacity="0"/></radialGradient><linearGradient id="g5" gradientUnits="userSpaceOnUse" x1="0" y1="15.3" x2="0" y2="22.4"><stop offset="0" stop-color="#9BFBE4" stop-opacity="1"/><stop offset="0.45" stop-color="#3EE6C0" stop-opacity="1"/><stop offset="1" stop-color="#159A82" stop-opacity="1"/></linearGradient></defs><path d="M-0.2,12A12.2,12.2 0 1 1 24.2,12A12.2,12.2 0 1 1 -0.2,12Z" fill="url(#g0)"/><path d="M8.45,5.15A3.55,3.55 0 1 1 15.55,5.15A3.55,3.55 0 1 1 8.45,5.15Z" fill="url(#g1)" stroke="#FFFFFF" stroke-width="0.7" stroke-linecap="round" stroke-linejoin="round" stroke-opacity="0.8"/><path d="M1.6,12A3.55,3.55 0 1 1 8.7,12A3.55,3.55 0 1 1 1.6,12Z" fill="url(#g2)" stroke="#FFFFFF" stroke-width="0.7" stroke-linecap="round" stroke-linejoin="round" stroke-opacity="0.8"/><path d="M15.3,12A3.55,3.55 0 1 1 22.4,12A3.55,3.55 0 1 1 15.3,12Z" fill="url(#g3)" stroke="#FFFFFF" stroke-width="0.7" stroke-linecap="round" stroke-linejoin="round" stroke-opacity="0.8"/><path d="M6.4,18.85A5.6,5.6 0 1 1 17.6,18.85A5.6,5.6 0 1 1 6.4,18.85Z" fill="url(#g4)"/><path d="M8.45,18.85A3.55,3.55 0 1 1 15.55,18.85A3.55,3.55 0 1 1 8.45,18.85Z" fill="url(#g5)" stroke="#FFFFFF" stroke-width="0.7" stroke-linecap="round" stroke-linejoin="round" stroke-opacity="0.8"/></svg>
