<svg xmlns="http://www.w3.org/2000/svg" width="24" height="24" viewBox="0 0 24 24"><!-- Foldcade original art, CC BY-SA 4.0. Start (generic / non-Thor) --><defs><linearGradient id="g0" gradientUnits="userSpaceOnUse" x1="0" y1="7" x2="0" y2="17"><stop offset="0" stop-color="#262A33" stop-opacity="1"/><stop offset="1" stop-color="#0A0B0F" stop-opacity="1"/></linearGradient><linearGradient id="g1" gradientUnits="userSpaceOnUse" x1="0" y1="7" x2="0" y2="17"><stop offset="0" stop-color="#E9E4DA" stop-opacity="0.95"/><stop offset="1" stop-color="#7C786F" stop-opacity="0.55"/></linearGradient><linearGradient id="g2" gradientUnits="userSpaceOnUse" x1="0" y1="8" x2="0" y2="12"><stop offset="0" stop-color="#FFFFFF" stop-opacity="0.28"/><stop offset="1" stop-color="#FFFFFF" stop-opacity="0"/></linearGradient></defs><path d="M8,7H16A5,5 0 0 1 21,12V12A5,5 0 0 1 16,17H8A5,5 0 0 1 3,12V12A5,5 0 0 1 8,7Z" fill="url(#g0)" stroke="url(#g1)" stroke-width="1.2" stroke-linecap="round" stroke-linejoin="round"/><path d="M6.3,8H17.7A1.8,1.8 0 0 1 19.5,9.8V9.8A1.8,1.8 0 0 1 17.7,11.6H6.3A1.8,1.8 0 0 1 4.5,9.8V9.8A1.8,1.8 0 0 1 6.3,8Z" fill="url(#g2)"/><path d="M10.4,9.4 L15,12 L10.4,14.6Z" fill="#F4F1EA" stroke="#F4F1EA" stroke-width="0.9" stroke-linecap="round" stroke-linejoin="round"/></svg>
