<svg xmlns="http://www.w3.org/2000/svg" width="24" height="24" viewBox="0 0 24 24"><!-- Foldcade original art, CC BY-SA 4.0. Thor Home: round cap, house outline (bottom-left) --><defs><linearGradient id="g0" gradientUnits="userSpaceOnUse" x1="0" y1="3.2" x2="0" y2="20.8"><stop offset="0" stop-color="#262A33" stop-opacity="1"/><stop offset="1" stop-color="#0A0B0F" stop-opacity="1"/></linearGradient><linearGradient id="g1" gradientUnits="userSpaceOnUse" x1="0" y1="3.2" x2="0" y2="20.8"><stop offset="0" stop-color="#E9E4DA" stop-opacity="0.95"/><stop offset="1" stop-color="#7C786F" stop-opacity="0.55"/></linearGradient><linearGradient id="g2" gradientUnits="userSpaceOnUse" x1="0" y1="4.4" x2="0" y2="11"><stop offset="0" stop-color="#FFFFFF" stop-opacity="0.28"/><stop offset="1" stop-color="#FFFFFF" stop-opacity="0"/></linearGradient></defs><path d="M3.2,12A8.8,8.8 0 1 1 20.8,12A8.8,8.8 0 1 1 3.2,12Z" fill="url(#g0)" stroke="url(#g1)" stroke-width="1.2" stroke-linecap="round" stroke-linejoin="round"/><path d="M9.3,4.6H14.7A3.1,3.1 0 0 1 17.8,7.7V7.7A3.1,3.1 0 0 1 14.7,10.8H9.3A3.1,3.1 0 0 1 6.2,7.7V7.7A3.1,3.1 0 0 1 9.3,4.6Z" fill="url(#g2)"/><path d="M7.6,12.1 L12,8.2 L16.4,12.1 M9.1,11 V15.4 Q9.1,16 9.7,16 H14.3 Q14.9,16 14.9,15.4 V11" fill="none" stroke="#F4F1EA" stroke-width="1.5" stroke-linecap="round" stroke-linejoin="round"/><path d="M12,13.1H12A1,1 0 0 1 13,14.1V16H11V14.1A1,1 0 0 1 12,13.1Z" fill="#F4F1EA"/></svg>
